<?xml version="1.0" encoding="UTF-8" standalone="no"?>
<svg
   version="1.1"
   viewBox="0 0 449.148 510.001"
   style="enable-background:new 0 0 449.148 510.001;"
   xml:space="preserve"
   id="svg332"
   sodipodi:docname="favicon.svg"
   inkscape:version="1.4 (e7c3feb, 2024-10-09)"
   xmlns:inkscape="http://www.inkscape.org/namespaces/inkscape"
   xmlns:sodipodi="http://sodipodi.sourceforge.net/DTD/sodipodi-0.dtd"
   xmlns="http://www.w3.org/2000/svg"
   xmlns:svg="http://www.w3.org/2000/svg"><defs
     id="defs336" /><sodipodi:namedview
     id="namedview334"
     pagecolor="#ffffff"
     bordercolor="#666666"
     borderopacity="1.0"
     inkscape:showpageshadow="2"
     inkscape:pageopacity="0.0"
     inkscape:pagecheckerboard="0"
     inkscape:deskcolor="#d1d1d1"
     showgrid="false"
     inkscape:zoom="0.97959845"
     inkscape:cx="242.44628"
     inkscape:cy="190.38413"
     inkscape:window-width="1920"
     inkscape:window-height="1011"
     inkscape:window-x="0"
     inkscape:window-y="0"
     inkscape:window-maximized="1"
     inkscape:current-layer="svg332" /><g
     id="Layer_1" /><path
     id="path6792"
     d="m 316.48723,14.011316 c -3.26127,-0.03776 -7.35881,2.023016 -9.98637,2.81751 -9.30146,2.810285 -18.86749,5.331377 -28.1968,8.017382 -8.67489,2.497327 -16.65353,5.53545 -25.06384,8.724476 -2.64215,1.001856 -8.21493,2.231633 -9.73616,4.775614 -1.35415,2.260273 1.0465,6.18355 1.96898,8.23495 3.15386,6.987587 7.05618,13.653962 10.26921,20.549298 3.75262,8.054198 9.21488,15.376918 12.5428,23.660518 1.1766,2.9269 2.59732,5.57636 4.10115,8.35461 0.55697,1.028656 1.14005,2.849966 2.21919,3.437566 1.45858,0.7937 4.65248,-0.67959 6.13541,-1.09872 5.23208,-1.47841 10.53726,-2.586966 15.66491,-4.416616 7.35554,-2.62474 15.34115,-3.71067 22.97518,-5.72204 10.26224,-2.70307 20.44095,-6.00305 30.63358,-8.5613 -0.47692,-5.43155 -4.65771,-11.74137 -6.87515,-16.709226 -5.41659,-12.130546 -10.1848,-24.569515 -16.33936,-36.203314 -1.91461,-3.615107 -3.84878,-7.288348 -5.53711,-11.00894 -0.6997,-1.539681 -0.91509,-3.685512 -2.68697,-4.449266 -0.63509,-0.273614 -1.33604,-0.393778 -2.08865,-0.402502 z M 229.07929,44.38381 c -0.93214,0.0061 -1.87796,0.108441 -2.64344,0.108796 -5.07055,0.0018 -9.90744,0.903945 -14.65321,2.556421 -13.96926,4.86378 -26.83231,9.652968 -38.95556,18.569427 -3.49743,2.57252 -7.18635,4.90277 -10.44324,7.78894 -1.12475,0.99663 -3.10479,2.1675 -3.26352,3.80744 -0.24055,2.48305 1.73008,5.94291 2.91541,8.0065 3.03794,5.28916 6.13845,10.58529 9.51858,15.664886 12.73522,19.13763 25.77094,38.18648 38.52042,57.43794 h 0.3481 c -0.34392,-8.01485 -2.08552,-15.96218 -2.08864,-24.01951 -8.7e-4,-2.94604 -0.39197,-6.71501 1.08784,-9.39894 2.11545,-3.8372 9.31539,-4.991 13.18462,-6.20069 12.31261,-3.84903 25.22396,-9.04925 37.94386,-11.20474 l 1.04432,-1.04432 c -2.54468,-6.953476 -6.77203,-13.541426 -10.04076,-20.190316 -4.06941,-8.27593 -7.53132,-16.99222 -11.44407,-25.411933 -1.7858,-3.846608 -3.56768,-7.69564 -5.47183,-11.487597 -0.7206,-1.441858 -1.53734,-3.695781 -3.01333,-4.514534 -0.69273,-0.383617 -1.61339,-0.47412 -2.54555,-0.46777 z m -84.71008,39.814944 c -4.35435,0.14657 -9.61816,3.26868 -12.96706,4.4819 -12.35404,4.47563 -23.68402,12.595356 -33.16824,21.637126 -3.59597,3.42852 -7.884844,7.56832 -9.986393,12.15118 -2.143286,4.673 -0.127277,6.67298 1.794935,10.80226 2.728148,5.8618 6.196008,11.193 9.616528,16.69832 12.99664,20.91961 29.26741,39.19289 43.83995,58.8304 4.29288,5.78522 8.56209,11.65267 14.01137,16.45902 1.5216,1.34196 3.24987,4.12726 5.25427,4.66683 5.86633,1.57867 12.99674,-0.75393 18.76524,-1.55562 11.27385,-1.56648 22.50384,-3.11191 33.76656,-5.15635 5.08831,-0.92389 10.16233,-2.82499 15.31679,-3.27441 -0.81458,-3.80272 -3.57691,-6.17945 -5.27604,-9.42069 -4.02655,-7.68207 -8.12851,-15.17154 -12.55367,-22.65971 -14.01904,-23.72221 -27.92658,-47.43808 -42.85001,-70.61168 -4.9623,-7.7061 -10.00178,-15.34533 -15.08833,-22.975176 -1.78511,-2.678 -4.1989,-7.86717 -7.09272,-9.38806 -1.01507,-0.5335 -2.16398,-0.72639 -3.38318,-0.68534 z m 216.68682,5.88521 c -3.1578,0.081 -6.30294,1.0965 -9.30103,1.90372 -7.1049,1.91321 -14.16454,3.956 -21.23465,5.97224 -24.10303,6.871306 -48.16431,14.206136 -72.40661,20.516646 -8.74101,2.27525 -17.47158,4.67624 -26.10815,7.27766 -2.7713,0.83511 -7.53561,1.41298 -9.67089,3.43757 -1.47287,1.39696 -1.12048,3.62156 -1.12048,5.46097 0,4.55778 0.25323,9.09991 1.1096,13.57623 0.88626,4.63438 1.29531,9.29555 2.21918,13.92437 0.33733,1.69075 0.25882,4.01803 1.19663,5.50446 1.20725,1.91321 5.63239,2.96849 7.65839,3.98149 9.80103,4.91005 21.07338,9.58885 31.32979,12.66246 6.31121,1.28452 12.74427,2.63291 19.14599,3.32879 3.31748,0.36028 6.74982,1.2109 10.09515,0.36986 10.8401,-2.72499 20.10328,-10.92131 28.19681,-18.24308 2.98328,-2.69888 5.72987,-6.93667 9.39894,-8.64832 -2.18614,7.59121 -6.41782,14.85345 -9.19225,22.27896 -1.06175,2.83257 -3.0538,6.29556 -2.89366,9.39895 0.21235,4.13482 4.34789,10.15816 7.91948,12.05325 2.1165,1.123 4.97055,1.19863 7.2994,1.6644 6.56883,1.31343 13.55883,1.98344 20.19032,2.64346 v 0.34809 c -6.33906,1.56163 -13.06104,1.40986 -19.4941,2.13218 -4.05198,0.45462 -7.91948,1.91799 -11.8357,2.64345 -8.14575,1.50731 -16.90417,2.79523 -24.71572,5.60238 -12.24299,4.40044 -23.71665,12.36186 -34.46276,19.55935 -26.20564,17.55547 -51.09836,39.09958 -67.33729,66.48877 -5.82665,9.82712 -12.08583,21.25206 -13.77206,32.72224 h -1.04434 c -0.003,3.75261 -2.99712,10.81662 -1.03343,14.20718 1.58981,2.74658 9.29127,3.46283 12.17292,3.54637 10.30297,0.30285 20.7922,2.45764 30.98169,3.82919 l -2.42589,6.61408 -8.1044,21.58273 -25.65128,66.48879 -8.32197,22.9752 -3.53547,8.00649 4.00325,-18.79787 7.27763,-32.37413 12.73861,-62.31149 c -3.40832,0 -6.4146,0.97646 -9.74704,1.34893 -6.66906,0.74843 -14.1273,0.28328 -20.53842,-1.62087 -2.03015,-0.60224 -5.94857,-1.221 -7.45171,-2.76312 -1.64062,-1.68136 -0.55478,-7.93036 -0.55478,-10.19306 0,-10.90973 2.41012,-21.77072 6.02663,-32.02602 10.48086,-29.71804 32.06734,-51.06102 54.51165,-72.15641 6.81146,-6.40416 14.52788,-11.73075 22.3116,-16.90504 3.83964,-2.55338 8.06916,-6.05439 12.53191,-7.36468 v -0.34809 c -9.00904,1.67266 -18.3871,1.80494 -27.50059,2.82837 -10.10281,1.13414 -20.1917,3.14395 -30.28545,4.41664 -5.55687,0.70073 -11.13671,1.5335 -16.70923,2.09952 -3.41494,0.34706 -7.66466,0.41434 -10.79138,1.92549 -14.07507,6.80204 -27.12777,16.98596 -40.03251,25.6295 l -10.09515,6.73372 c -1.11291,0.74496 -2.72047,2.51683 -4.17731,2.26272 -1.57936,-0.27501 -3.29728,-2.19048 -4.52541,-3.15473 -3.24994,-2.54817 -6.4355,-5.20467 -9.74706,-7.66928 -12.907177,-9.60433 -25.201676,-19.98944 -37.943862,-29.71979 -3.658614,-2.79359 -7.089823,-5.83848 -10.780483,-8.52866 -1.814346,-1.32247 -2.93953,-2.91785 -5.232504,-3.43759 -0.287543,3.51904 -1.466326,6.91137 -1.707914,10.44328 -0.642263,9.37699 0.393437,19.66092 2.143041,28.8604 2.041675,10.73567 5.358007,21.84165 8.169685,32.40674 1.17799,4.42794 3.443221,8.53563 3.579,13.22813 h 1.044315 c 0.51659,3.44976 2.294559,6.7533 3.285276,10.09516 1.363885,4.60199 2.203877,10.02205 4.786488,14.18543 6.488061,10.46067 16.985115,19.68685 26.042897,27.88135 5.305881,4.80041 10.711661,9.49423 16.013011,14.30509 1.673,1.51426 5.35417,3.49326 6.08103,5.70028 0.78115,2.37409 -0.45037,6.10146 -0.51129,8.59393 -0.22209,9.06824 -1.11055,18.50546 -2.3606,27.50059 -19.00003,146.39031 -18.780409,288.18906 -18.10882,347.50026 35.4362,16.35911 79.36146,28.10053 120.95418,28.10053 34.55393,0 94.87939,-12.18169 125.40409,-23.69417 -5.48815,-101.68975 -9.97968,-170.96182 -23.94224,-301.11537 -0.69275,-5.72988 -0.52955,-11.62899 -1.14223,-17.37278 -1.11047,-10.35282 -2.73179,-20.63938 -3.72042,-30.98171 -0.40729,-4.24694 -0.14831,-8.67486 -0.83764,-12.88003 -1.7127,-10.46414 -2.56947,-21.07102 -3.05683,-31.67788 -0.15656,-3.43236 -2.44893,-7.67929 -1.17486,-11.13949 0.66488,-1.79625 2.66826,-3.18519 3.95974,-4.52541 2.65607,-2.75703 5.09545,-5.23468 7.98474,-7.72367 6.32862,-5.45137 11.85048,-11.9027 18.03638,-17.51421 5.44096,-4.9362 10.09908,-10.73961 15.32766,-15.84984 15.9051,-15.53956 32.02602,-30.88377 47.77794,-46.63569 6.21375,-6.21374 12.24994,-12.56674 18.44976,-18.79788 2.47159,-2.48444 6.84036,-5.94779 7.83245,-9.39894 1.03389,-3.59561 -1.40592,-7.95324 -2.68696,-11.13949 -1.76492,-4.37711 -2.8149,-9.37943 -4.14466,-13.92434 -6.48528,-22.20271 -14.16978,-43.91148 -21.7133,-65.79256 -4.3618,-12.65897 -9.09652,-25.22118 -13.32604,-37.94386 -1.64655,-4.94209 -2.86755,-13.20384 -6.41825,-17.024686 -4.48365,-4.82304 -12.1355,-6.43462 -18.37362,-7.24501 -0.72841,-0.0947 -1.45784,-0.12748 -2.18656,-0.1088 z M 75.75913,140.15724 c -0.670072,0.007 -1.379379,0.0874 -2.14305,0.25019 -7.559175,1.6121 -14.158631,7.68676 -19.8422,12.55369 -6.351243,5.43919 -11.759546,11.55973 -16.763616,18.24307 -2.953345,3.94442 -5.793407,8.04444 -5.504468,13.22813 0.360646,6.46542 8.364969,12.19286 12.521046,16.36111 12.386051,12.42121 25.326116,23.54939 38.618315,34.91966 8.480611,7.25389 16.989263,14.36027 25.781803,21.202 3.42192,2.65956 7.15017,6.71154 11.83571,5.65677 9.38814,-2.10953 18.94973,-9.77402 26.11904,-15.8607 2.12729,-1.806 6.68046,-5.16497 6.47264,-8.32198 -0.14104,-2.14086 -1.59921,-3.25282 -2.69784,-4.88441 -2.95544,-4.38964 -6.37761,-8.34086 -9.5186,-12.55367 -12.10234,-16.2337 -23.89602,-32.77452 -36.08366,-49.0507 -6.12359,-8.17813 -12.255087,-16.28209 -18.525915,-24.36761 -2.99478,-3.86075 -5.578694,-7.41855 -10.269205,-7.37555 z m 148.93617,42.53454 c 0.45427,3.12566 3.37849,6.11904 5.10197,8.70271 4.43595,6.64888 8.93682,13.35789 13.68504,19.78781 1.47597,1.99885 3.77653,7.74925 6.3421,8.26759 3.4219,0.69065 7.54831,-2.06134 10.73699,-2.85015 9.96286,-2.46668 20.46139,-5.95692 30.62267,-7.45169 -0.48037,-2.31215 -1.85411,-7.55136 -3.70952,-9.0726 -1.18357,-0.97191 -3.53462,-1.24632 -4.99318,-1.66438 -3.93016,-1.12684 -7.87423,-2.2554 -11.83571,-3.26353 -15.41774,-3.92387 -30.56742,-8.79192 -45.95036,-12.45576 z"
     style="fill:#000000;fill-opacity:1;stroke:none;stroke-width:0.348109"
     inkscape:connector-curvature="0"
     sodipodi:nodetypes="sccsccccccccccccccsccccccccccccccccccccsscccccccccccscccsscccccscccccccscccsccccccccccccccccccccccccsccccccccccccccccccscccccccccccscccccccccccsccccccccscccscccccccccccccccccccccc" /></svg>
