<?xml version="1.0" encoding="UTF-8" standalone="no"?>
<svg
   version="1.1"
   viewBox="0 0 449.148 510.001"
   style="enable-background:new 0 0 449.148 510.001;"
   xml:space="preserve"
   id="svg332"
   sodipodi:docname="favicon.svg"
   inkscape:version="1.4 (e7c3feb, 2024-10-09)"
   xmlns:inkscape="http://www.inkscape.org/namespaces/inkscape"
   xmlns:sodipodi="http://sodipodi.sourceforge.net/DTD/sodipodi-0.dtd"
   xmlns="http://www.w3.org/2000/svg"
   xmlns:svg="http://www.w3.org/2000/svg"><defs
     id="defs336" /><sodipodi:namedview
     id="namedview334"
     pagecolor="#ffffff"
     bordercolor="#666666"
     borderopacity="1.0"
     inkscape:showpageshadow="2"
     inkscape:pageopacity="0.0"
     inkscape:pagecheckerboard="0"
     inkscape:deskcolor="#d1d1d1"
     showgrid="false"
     inkscape:zoom="0.56360459"
     inkscape:cx="52.34166"
     inkscape:cy="-38.147312"
     inkscape:window-width="1920"
     inkscape:window-height="1011"
     inkscape:window-x="0"
     inkscape:window-y="0"
     inkscape:window-maximized="1"
     inkscape:current-layer="svg332" /><g
     id="Layer_1" /><path
     id="path6792"
     d="m 281.55027,14.170896 c -2.01646,-0.02335 -4.55,1.250845 -6.17464,1.742086 -5.75116,1.737619 -11.6659,3.296427 -17.43428,4.957202 -5.36374,1.544115 -10.29699,3.422607 -15.49714,5.394404 -1.63366,0.619454 -5.07935,1.379834 -6.01994,2.952795 -0.83728,1.397542 0.64706,3.823331 1.21744,5.091726 1.95005,4.320473 4.36288,8.442339 6.34952,12.705773 2.32027,4.979964 5.69762,9.507656 7.7553,14.629463 0.7275,1.809722 1.60594,3.447898 2.53577,5.165712 0.34438,0.636028 0.7049,1.762155 1.37214,2.125472 0.90185,0.49075 2.87666,-0.420194 3.79357,-0.679344 3.23503,-0.914111 6.51526,-1.599541 9.68572,-2.730829 4.54798,-1.622896 9.48554,-2.294334 14.20571,-3.537978 6.34521,-1.671325 12.63878,-3.711725 18.94095,-5.29351 -0.29488,-3.358362 -2.87989,-7.259767 -4.25095,-10.331428 -3.34911,-7.500401 -6.29733,-15.191501 -10.10274,-22.384759 -1.18381,-2.235246 -2.37973,-4.506436 -3.42363,-6.806903 -0.43263,-0.951996 -0.56581,-2.278778 -1.66137,-2.751012 -0.39268,-0.169178 -0.82609,-0.243476 -1.29143,-0.24887 z m -54.04493,18.779522 c -0.57635,0.0038 -1.16116,0.06705 -1.63446,0.06727 -3.13516,0.0011 -6.12584,0.558915 -9.06018,1.580652 -8.63729,3.007309 -16.5906,5.968497 -24.08649,11.481605 -2.16249,1.590609 -4.44337,3.031414 -6.45713,4.815953 -0.69544,0.616228 -1.91971,1.34018 -2.01786,2.354166 -0.14873,1.535291 1.06973,3.674546 1.80262,4.950476 1.87838,3.270327 3.79545,6.544959 5.88541,9.685713 7.87427,11.832926 15.93435,23.610967 23.81744,35.514277 h 0.21523 c -0.21265,-4.95564 -1.28949,-9.86953 -1.29142,-14.85143 -5.4e-4,-1.82156 -0.24236,-4.15194 0.67262,-5.811431 1.308,-2.37257 5.75977,-3.08597 8.15214,-3.83393 7.61297,-2.37988 15.59615,-5.59521 23.46095,-6.92797 l 0.64571,-0.64571 c -1.57339,-4.299385 -4.18719,-8.372761 -6.20827,-12.483813 -2.51614,-5.117066 -4.65667,-10.50641 -7.07595,-15.712375 -1.10417,-2.378384 -2.20592,-4.758267 -3.38327,-7.10286 -0.44555,-0.891511 -0.95055,-2.285127 -1.86316,-2.791367 -0.42832,-0.237193 -0.99757,-0.293152 -1.57393,-0.289226 z m -52.37683,24.617853 c -2.69232,0.09063 -5.94697,2.021052 -8.01762,2.77119 -7.63859,2.767317 -14.64399,7.787798 -20.50815,13.378388 -2.22341,2.11988 -4.87525,4.67955 -6.17465,7.51316 -1.32521,2.889351 -0.0787,4.125951 1.10982,6.679111 1.68683,3.62439 3.83103,6.92071 5.94596,10.32469 8.03591,12.93474 18.09624,24.23323 27.10654,36.37524 2.65432,3.57704 5.294,7.20493 8.66333,10.17672 0.94081,0.82975 2.00941,2.55192 3.24875,2.88554 3.62719,0.9761 8.03597,-0.46616 11.60268,-0.96185 6.9707,-0.96857 13.91428,-1.92412 20.87809,-3.18821 3.14614,-0.57125 6.28344,-1.74671 9.47048,-2.02459 -0.50366,-2.35125 -2.21163,-3.8208 -3.26221,-5.82488 -2.48965,-4.74987 -5.02592,-9.38066 -7.76202,-14.01065 -8.66807,-14.66761 -17.2672,-29.33129 -26.49446,-43.659691 -3.06822,-4.76473 -6.18417,-9.488129 -9.32922,-14.205716 -1.10374,-1.655824 -2.59621,-4.864324 -4.38548,-5.804702 -0.62762,-0.329862 -1.338,-0.449127 -2.09184,-0.42375 z m 133.97896,3.638867 c -1.95249,0.05011 -3.89715,0.677976 -5.75089,1.177086 -4.39301,1.182949 -8.75804,2.446021 -13.12953,3.692679 -14.90308,4.248576 -29.78033,8.783756 -44.76951,12.685586 -5.40463,1.4068 -10.8028,2.89135 -16.14285,4.49983 -1.71351,0.51635 -4.65932,0.873651 -5.97958,2.125471 -0.91068,0.86375 -0.6928,2.23923 -0.6928,3.37655 0,2.81811 0.15658,5.62654 0.68607,8.39428 0.54799,2.86547 0.8009,5.7475 1.37214,8.60953 0.20857,1.04541 0.16003,2.48438 0.73988,3.40345 0.74645,1.18295 3.48255,1.83544 4.73524,2.46178 6.06004,3.03592 13.02981,5.92885 19.37142,7.82929 3.90227,0.79423 7.87987,1.62795 11.8381,2.05821 2.05122,0.22277 4.17346,0.74871 6.2419,0.22869 6.70251,-1.68488 12.43,-6.75272 17.43428,-11.27982 1.84459,-1.66874 3.54282,-4.28899 5.81143,-5.34732 -1.3517,4.6937 -3.96818,9.18399 -5.68363,13.77524 -0.65648,1.75139 -1.88818,3.89258 -1.78917,5.81143 0.1313,2.55659 2.68833,6.28086 4.89667,7.45261 1.30865,0.69436 3.07333,0.74112 4.51327,1.02911 4.06155,0.8121 8.38352,1.22637 12.48381,1.63447 v 0.21523 c -3.91948,0.96556 -8.07573,0.87172 -12.05333,1.31834 -2.50537,0.28109 -4.89667,1.1859 -7.3181,1.63446 -5.03657,0.93198 -10.45196,1.72831 -15.2819,3.46399 -7.56992,2.72082 -14.66417,7.64342 -21.30856,12.09368 -16.20313,10.85467 -31.59447,24.17554 -41.63511,41.11047 -3.60266,6.07617 -7.47275,13.14029 -8.51536,20.23238 h -0.64572 c -0.002,2.32027 -1.85314,6.68799 -0.63898,8.7844 0.98299,1.69823 5.74486,2.14109 7.5266,2.19274 6.3704,0.18726 12.85596,1.51958 19.15619,2.36762 l -1.49994,4.08953 -5.01101,13.34475 -15.86036,41.11048 -5.14553,14.20572 -2.18601,4.95047 2.47524,-11.62285 4.49981,-20.01715 7.87637,-38.52762 c -2.10739,0 -3.96619,0.60375 -6.02666,0.83405 -4.12353,0.46276 -8.73501,0.17515 -12.69905,-1.0022 -1.25526,-0.37236 -3.67804,-0.75495 -4.60744,-1.70845 -1.01441,-1.0396 -0.34303,-4.9034 -0.34303,-6.30244 0,-6.74556 1.4902,-13.46099 3.72631,-19.80191 6.48039,-18.37487 19.82746,-31.57138 33.70493,-44.61481 4.21157,-3.95973 8.98269,-7.2532 13.79541,-10.4525 2.37408,-1.57877 4.98922,-3.74347 7.74857,-4.55363 v -0.21523 c -5.57035,1.03422 -11.36887,1.11601 -17.0038,1.7488 -6.24664,0.70125 -12.48467,1.94393 -18.72571,2.73084 -3.43585,0.43327 -6.8859,0.94818 -10.33143,1.29815 -2.11148,0.21459 -4.73911,0.25619 -6.67238,1.19054 -8.70272,4.20575 -16.77329,10.50254 -24.75238,15.8469 l -6.2419,4.16351 c -0.68812,0.46061 -1.68209,1.55617 -2.58286,1.39905 -0.97653,-0.17004 -2.03873,-1.35439 -2.79809,-1.95059 -2.00946,-1.57555 -3.97911,-3.21808 -6.02667,-4.74197 -7.9806,-5.93842 -15.58237,-12.35961 -23.46095,-18.37595 -2.26215,-1.72729 -4.38369,-3.60997 -6.66565,-5.27333 -1.12182,-0.81769 -1.81753,-1.80413 -3.23529,-2.12548 -0.17779,2.17584 -0.90664,4.27334 -1.05602,6.45715 -0.39711,5.79786 0.24327,12.15648 1.32506,17.84458 1.26238,6.63794 3.31289,13.50484 5.05137,20.03731 0.72836,2.73783 2.12897,5.27764 2.21292,8.17905 h 0.64571 c 0.31941,2.13301 1.41874,4.17561 2.03131,6.2419 0.8433,2.84545 1.36267,6.19671 2.95952,8.77095 4.01161,6.46791 10.50201,12.17252 16.1025,17.23923 3.28066,2.96813 6.62309,5.87035 9.90095,8.84494 1.03443,0.93628 3.31052,2.15991 3.75994,3.52452 0.48299,1.46792 -0.27846,3.77258 -0.31613,5.31369 -0.13732,5.60695 -0.68666,11.44205 -1.45958,17.0038 -11.74784,90.51414 -11.61205,178.18929 -11.1968,214.86181 21.91044,10.11495 49.06973,17.37475 74.7868,17.37475 21.36493,0 58.66458,-7.53202 77.53821,-14.65027 -3.39336,-62.87547 -6.1705,-105.70687 -14.80365,-186.18171 -0.42833,-3.54282 -0.32743,-7.19028 -0.70625,-10.74171 -0.68661,-6.40122 -1.68909,-12.76147 -2.30036,-19.1562 -0.25183,-2.62591 -0.0917,-5.36373 -0.51792,-7.96381 -1.05897,-6.47005 -1.58872,-13.02836 -1.89006,-19.58666 -0.0968,-2.12225 -1.51419,-4.74815 -0.72642,-6.88762 0.4111,-1.11063 1.6498,-1.96942 2.44833,-2.79809 1.64227,-1.70469 3.15055,-3.23664 4.93702,-4.7756 3.91303,-3.37062 7.32724,-7.35952 11.15202,-10.82916 3.36418,-3.05208 6.24433,-6.64037 9.4772,-9.80006 9.83423,-9.60822 19.80191,-19.09565 29.54143,-28.83517 3.842,-3.842 7.57422,-7.7701 11.40761,-11.62286 1.5282,-1.53615 4.22944,-3.67756 4.84286,-5.81143 0.63926,-2.22319 -0.86929,-4.91754 -1.66137,-6.88762 -1.09126,-2.7064 -1.74047,-5.79937 -2.56267,-8.60952 -4.00989,-13.72809 -8.76127,-27.15077 -13.42548,-40.67999 -2.69693,-7.82713 -5.62444,-15.59443 -8.23958,-23.460951 -1.01808,-3.05573 -1.77303,-8.16403 -3.96845,-10.526486 -2.77227,-2.982121 -7.50347,-3.978567 -11.36054,-4.47964 -0.45038,-0.05852 -0.90139,-0.07882 -1.35196,-0.06727 z M 132.70643,92.16779 c -0.41431,0.004 -0.85288,0.054 -1.32506,0.1547 -4.67389,0.99677 -8.75438,4.75278 -12.26857,7.76203 -3.92702,3.36309 -7.27101,7.14746 -10.36506,11.27982 -1.82607,2.43886 -3.5821,4.97393 -3.40345,8.17904 0.22299,3.99762 5.17212,7.53893 7.74185,10.11619 7.65838,7.68012 15.65931,14.56075 23.87797,21.59107 5.24362,4.48513 10.50458,8.87905 15.94106,13.10934 2.1158,1.64442 4.421,4.14979 7.3181,3.49762 5.80475,-1.30434 11.71675,-6.04335 16.14958,-9.80678 1.31532,-1.11666 4.13058,-3.19354 4.00208,-5.14554 -0.0872,-1.32371 -0.9888,-2.01124 -1.66809,-3.02006 -1.82737,-2.71415 -3.94332,-5.15721 -5.88542,-7.76202 -7.48296,-10.03741 -14.77507,-20.26472 -22.31077,-30.32839 -3.78625,-5.05659 -7.5774,-10.06733 -11.4547,-15.06666 -1.85169,-2.38713 -3.44934,-4.58694 -6.34952,-4.56036 z m 92.08826,26.2994 c 0.28088,1.93262 2.08894,3.78345 3.15458,5.38095 2.74278,4.11105 5.5257,8.25928 8.46155,12.23494 0.91261,1.2359 2.33506,4.79141 3.92137,5.11191 2.11578,0.42703 4.66717,-1.27454 6.63875,-1.76227 6.16011,-1.52517 12.65142,-3.6832 18.93421,-4.60743 -0.29702,-1.42962 -1.14641,-4.66906 -2.29362,-5.60965 -0.73181,-0.60094 -2.18548,-0.77061 -3.08732,-1.0291 -2.43004,-0.69673 -4.86869,-1.39453 -7.3181,-2.01786 -9.53289,-2.42616 -18.90005,-5.43611 -28.41142,-7.70149 z"
     style="fill:#000000;fill-opacity:1;stroke:none;stroke-width:0.215238"
     inkscape:connector-curvature="0"
     sodipodi:nodetypes="sccsccccccccccccccsccccccccccccccccccccsscccccccccccscccsscccccscccccccscccsccccccccccccccccccccccccsccccccccccccccccccscccccccccccscccccccccccsccccccccscccscccccccccccccccccccccc" /></svg>
