<?xml version='1.0' encoding='utf-8'?>
<svg xmlns="http://www.w3.org/2000/svg" viewBox="0 0 706.25 347.5"> <path d="m644.05 345.53c-0.42592-0.76101-0.41022-2.9984 0.03489-4.9719s0.62205-3.7755 0.39322-4.0044c-1.1083-1.1083-10.278 2.5577-12.625 5.0471-1.5655 1.6609-3.6996 2.8128-5.2115 2.8128-2.1773 0-2.7205-0.63562-3.6316-4.25-0.58921-2.3375-1.9566-6.0993-3.0385-8.3595s-1.9672-5.0462-1.9672-6.191-0.42771-2.3458-0.95047-2.6689c-1.1842-0.73186-9.4997 3.102-11.217 5.1718-2.1708 2.6157-4.1432 8.6104-4.2778 13.002-0.15077 4.9184-0.69815 5.7025-3.3854 4.8496-2.8675-0.91011-5.4126-7.7824-4.1307-11.154 0.70523-1.8549 0.66698-3.0501-0.1283-4.0084-1.7849-2.1507-0.18693-6.3355 2.8619-7.4947 2.7606-1.0496 7.7143-6.3706 9.9732-10.713 1.2217-2.3483 1.175-2.3843-2.5-1.9234-2.0597 0.25832-5.1921 1.0732-6.9608 1.8109-2.9402 1.2262-3.4161 1.1532-5.5509-0.8524-2.0104-1.8887-2.8136-2.0564-5.7775-1.2064-4.625 1.3264-4.9557 1.2722-4.9557-0.81271 0-2.7821-1.9994-4.1501-5.1458-3.5208-4.2135 0.8427-3.5516-1.2827 1.1458-3.6792 2.2-1.1224 4-2.2048 4-2.4053s-1.121-1.0992-2.491-1.9968c-2.2586-1.4799-2.832-1.4897-6.1447-0.10559l-3.6536 1.5266 1.0551 35.14 3.3671 2.88c1.8519 1.584 4.5548 2.8983 6.0063 2.9206 3.2089 0.04941 7.4611 3.2603 6.4609 4.8787-0.47366 0.7664-4.3899 1.162-11.504 1.162-9.3438 0-11.017-0.2552-12.513-1.9086-1.4066-1.5543-1.5465-2.5633-0.75348-5.4352 0.81077-2.9364 0.50146-4.8346-1.8481-11.341-1.552-4.2981-3.3257-9.7273-3.9416-12.065-0.67131-2.5478-1.7045-4.25-2.5797-4.25-0.80292 0-1.4599 0.46005-1.4599 1.0223s-1.7115 2.9248-3.8034 5.25c-4.5238 5.0285-9.2484 15.827-9.0689 20.728 0.22542 6.1537-0.03798 7-2.1787 7-2.9032 0-4.5584-4.7584-5.3282-15.318l-0.64289-8.8182 3.7611-4.6529c6.8354-8.4562 7.733-9.5369 11.052-13.306 3.8029-4.3189 3.0035-5.4651-2.7341-3.9201-3.8555 1.0382-22.607 0.79775-23.709-0.30399-0.80819-0.80819 10.667-8.9627 14.942-10.617 2.041-0.79015 3.7108-1.9955 3.7108-2.6786 0-1.2355-2.6484-4.3848-3.6874-4.3848-1.4578 0-10.825 7.7491-15.051 12.451-2.619 2.9141-5.7496 5.6021-6.9569 5.9735-2.1353 0.65672-2.1891 1.0489-1.9732 14.375 0.28713 17.726 1.2934 20.014 10.985 24.976 8.6668 4.4375 7.7245 5.6178-4.5783 5.7344-13.743 0.13021-13.989 0.04226-13.429-4.8018 0.35287-3.0548-0.49957-6.6076-3.5084-14.622-2.186-5.8226-4.1309-10.745-4.322-10.938-0.57927-0.58509-15.341 10.972-26.295 20.586-3.918 3.4389-4.2229 4.0327-3.3071 6.4414 1.231 3.2376 0.73212 3.4592-7.377 3.2773-20.304-0.45545-18.5-0.12505-18.5-3.3888 0-1.6142-0.46144-4.1486-1.0254-5.632-1.0108-2.6585-1.0551-2.6702-3.0989-0.82063-1.6245 1.4702-1.9644 2.6895-1.5698 5.6318 0.61507 4.5857-0.79696 5.7091-3.6233 2.8828-1.6709-1.6709-2.1455-3.4551-2.2579-8.4884-0.07829-3.505-0.45743-6.8826-0.84255-7.5058s-0.33615-1.151 0.10881-1.173c2.3796-0.11776-5.8632-3.4445-9.691-3.9113-4.0047-0.48831-4.5348-0.85138-4.8164-3.2987-0.38358-3.3337-1.0406-3.3928-5.5606-0.5-4.5334 2.9013-6.623 8.0555-6.623 16.336 0 9.7797-0.58494 10.414-9.6026 10.414-7.3334 0-7.5154-0.0594-6.8948-2.25 0.35055-1.2375 2.2786-3.7322 4.2845-5.5437 3.4588-3.1235 3.6832-3.7122 4.3433-11.394 0.38288-4.4553 0.47903-8.6662 0.21367-9.3578-1.0136-2.6413-4.7814-2.3985-10.195 0.65699-5.9888 3.3799-7.8627 2.8969-6.1578-1.5872 0.58582-1.5408 0.82755-3.0391 0.53716-3.3295-0.735-0.735-0.80933-0.6244-5.4152 8.0584-2.7297 5.1459-4.1076 9.0131-4.0974 11.5 0.01799 4.4024 0.42831 5.1055 4.7347 8.1132 4.128 2.8832 4.1354 4.7768 0.02084 5.3807-2.6069 0.38261-3.7441-0.07729-5.9012-2.3865-1.4696-1.5732-3.1888-2.8604-3.8205-2.8604s-2.5287-0.71375-4.2157-1.5861c-2.7231-1.4082-3.006-1.9633-2.5216-4.9482 0.30007-1.8491 1.7027-5.0648 3.1169-7.146 2.9519-4.3441 3.6128-11.32 1.0724-11.32-0.82437 0-3.3536 1.8-5.6206 4s-4.5175 4-5.0011 4-0.88219 0.7875-0.88558 1.75-0.67839 3.0389-1.5 4.6143c-2.5758 4.9388-1.9645 6.0977 5.1358 9.7373 3.6463 1.8691 6.5694 3.8484 6.4958 4.3984-0.14514 1.0839-24.351 1.4603-34.625 0.53839l-6-0.53839 0.2563-7.75c0.15551-4.7022-0.13945-7.75-0.75-7.75-0.55346 0-1.0063 0.369-1.0063 0.82s-1.6354 2.7306-3.6342 5.0658c-2.7095 3.1655-3.3456 4.5344-2.5 5.38 0.62382 0.62382 1.1342 1.9442 1.1342 2.9342 0 1.6184-1.0535 1.8-10.443 1.8-9.6582 0-10.56-0.16708-12-2.2225-0.85618-1.2224-1.5567-3.7349-1.5567-5.5833 0-4.4764-2.3839-3.7366-2.8317 0.87884-0.35498 3.6588-1.7138 5.9309-3.5407 5.9207-1.6443-0.00922-4.6276-5.716-4.6276-8.8522 0-1.483-0.63063-3.5968-1.4014-4.6972s-1.5583-3.113-1.75-4.4725c-0.33444-2.3713-0.65346-2.4744-7.8486-2.5378-4.3024-0.03787-8.6513 0.49506-10.2 1.25-4.0392 1.9685-7.1991 1.6019-10.205-1.184-3.1344-2.9048-3.9-3.0417-5.5945-1-0.99557 1.1996-0.98461 1.8136 0.05472 3.0659 2.083 2.5098 6.5687 4.4341 10.337 4.4341 1.9199 0 3.7442 0.4102 4.054 0.91155 0.74322 1.2026-9.3037 7.3568-10.968 6.7182-0.70933-0.27219-2.0767 0.37475-3.0386 1.4377s-2.5185 1.9326-3.4591 1.9326c-2.3017 0-6.9799-3.779-6.9799-5.6383 0-0.82124-0.49511-2.4183-1.1002-3.549-1.0779-2.0141-1.1359-2.0015-2.8561 0.62081-2.0022 3.0522-5.8929 6.0506-6.7452 5.1983-0.88608-0.88608-1.3229-7.8128-0.68906-10.926 0.31291-1.5368 1.4884-3.6507 2.6122-4.6977l2.0433-1.9036-2.6302-0.66014c-3.8492-0.96608-4.8295-0.23823-7.9977 5.9378-3.8024 7.4124-3.176 9.8042 3.4465 13.16 2.7772 1.4073 4.8704 3.0985 4.6516 3.7582-0.28872 0.87033-7.5099 1.3654-26.316 1.8042-14.255 0.33261-28.619 0.89787-31.919 1.2561-10.505 1.1405-44.46 1.605-46.99 0.64277-2.1975-0.83548-2.3324-1.2136-1.3937-3.9063 0.5716-1.6397 1.6794-3.5125 2.4617-4.1618s1.4224-2.4434 1.4224-3.9868c0-1.8024 1.1827-4.0604 3.3059-6.3117 3.1128-3.3006 3.1858-3.5376 1.25-4.0576-4.4374-1.1919-6.8742-0.47477-10.773 3.1705-7.3986 6.9174-9.2684 8.8632-12.076 12.566-1.536 2.0261-3.472 3.6838-4.3024 3.6838-2.3289 0-1.6772-11.384 0.83452-14.577 1.9044-2.421 1.904-2.4227-0.5119-2.4227-3.0467 0-5.0864 2.2438-7.7601 8.5365-3.8393 9.0362-5.4436 11.544-7.7558 12.125-2.3589 0.59238-20.093-0.47022-21.408-1.2827-0.406-0.25092-0.47613-1.7665-0.15584-3.3679s0.09046-4.3227-0.51073-6.0472c-0.7765-2.2275-0.79317-5.2917-0.05756-10.581 0.56953-4.0948 0.73695-8.3857 0.37205-9.5354-0.59781-1.8835-1.123-2.014-5.3075-1.319-10.814 1.7962-14.677 0.71417-17.187-4.8138-1.0523-2.3181-1.9232-5.3971-1.9353-6.8423-0.06236-7.4605-8.189-4.8215-11.319 3.6758-2.4649 6.6908-3.8234 7.9927-6.7217 6.4416-1.3561-0.72574-4.7852-1.0442-8.6167-0.80023l-6.3642 0.40525v-9.23c0-8.3102 0.19665-9.2924 1.9734-9.8563 1.4706-0.46673 2.1376-1.8646 2.618-5.4858 0.35455-2.6727 2.0323-7.2587 3.7283-10.191s3.1248-5.7816 3.1752-6.3316c0.36954-4.0367 4.1259-12.916 6.6286-15.669 1.6659-1.8322 4.5263-5.5813 6.3566-8.3313s5.1449-6.7007 7.3658-8.7793 4.3537-4.7786 4.7395-6c0.76765-2.4299 3.7357-4.9135 6.889-5.7646 1.1083-0.29911 2.1554-1.2722 2.3268-2.1624 0.25868-1.3432-0.42085-1.5408-3.9948-1.1613-12.341 1.3104-12.813 1.4462-14.533 4.1817-0.92859 1.4772-3.8376 5.3038-6.4644 8.5034s-5.5556 7.1371-6.5083 8.75-2.2677 2.9325-2.922 2.9325-3.0749 1.575-5.379 3.5-4.5966 3.5-5.0946 3.5-0.9037-1.9125-0.90165-4.25c0.0035-3.9743 2.28-9.1766 5.3661-12.263 0.67273-0.67273 3.2252-4.3201 5.672-8.1052s4.7885-7.0321 5.2035-7.2154 0.75462-0.88665 0.75462-1.5629c0-2.3811 11.027-10.604 14.22-10.604 1.5624 0 10.851-5.9081 13.481-8.5752 2.2422-2.2733 8.7986-4.7556 15.549-5.8869 2.0625-0.34566 3.75-1.0581 3.75-1.5832s2.25-0.95469 5-0.95469c5.4906 0 6.7026-1.4671 2.0553-2.4878-2.2272-0.48916-3.224-1.4932-4.0912-4.1207-1.4061-4.2604-0.70584-6.3915 2.1001-6.3915 1.1699 0 3.4433-0.77748 5.0519-1.7277 2.5673-1.5165 3.1974-1.5545 5.1543-0.31053 1.2262 0.77946 3.8628 2.2163 5.8591 3.1929 4.3082 2.1077 4.8704 3.3055 4.8704 10.377 0 4.0464-0.43098 5.627-1.75 6.4181-1.619 0.97095-1.5732 1.1993 0.61078 3.0497 1.5543 1.3168 3.8142 2.0002 6.6151 2.0002 2.7614 0 5.1602 0.71252 6.8357 2.0305 2.3271 1.8305 3.1906 1.9323 8.7673 1.0342 5.7294-0.92269 9.0116-2.0647 5.9342-2.0647-0.72616 0-3.0707-1.896-5.2101-4.2134-3.6014-3.9011-4.0528-4.1116-6.0891-2.84-3.3667 2.1026-8.5104 3.014-9.5452 1.6914-1.3333-1.7042-0.22568-8.9228 1.1941-7.782 0.67715 0.54405 2.0951 0.55115 3.5049 0.01755 2.27-0.85919 1.9371-1.3596-8.0731-12.135-5.7424-6.1813-12.157-12.093-14.255-13.137-3.6216-1.8021-4.0476-1.8145-8.4269-0.24505-2.5368 0.90916-6.2139 1.6508-8.1713 1.6481s-4.4324 0.65574-5.5 1.4632-2.4318 1.4825-3.0316 1.5-4.0996-3.563-7.7774-7.9567c-6.2471-7.463-11.661-11.73-13.468-10.613-1.0462 0.6466-0.18155 7.6016 0.94506 7.6016 0.48983 0 0.89059-0.765 0.89059-1.7 0-1.2415 0.29815-1.4018 1.1055-0.59446 3.082 3.082-10.104 31.546-17.606 38.005-3.7516 3.2303-15.343 10.289-16.896 10.289-0.38709 0-0.56885-2.5875-0.4039-5.75l0.2999-5.75 6.5-2.288c5.6998-2.0063 6.7358-2.777 8.4157-6.2599 1.0536-2.1846 3.6177-5.7082 5.6979-7.8304s3.9913-4.9302 4.247-6.2401l1.6395-8.3817c0.64609-3.3 1.3611-6.981 1.5888-8.1801s1.0227-2.7886 1.7665-3.5324c1.1364-1.1364 0.67237-1.9438-2.9069-5.0574l-4.2592-3.705-7.3446 0.93342c-4.0396 0.51338-9.2425 1.2379-11.562 1.6101l-4.2175 0.67664 0.14767-39.123c0.08122-21.517 0.27053-39.123 0.42068-39.123s3.0586 3.2625 6.4633 7.25 9.6671 11.075 13.917 15.75 12.154 13.675 17.566 20 10.083 11.725 10.38 12 3.9159 4.2978 8.0409 8.9394 8.5654 9.5917 9.8677 11c2.8336 3.0645 16.61 18.726 28.642 32.561 4.7833 5.5 9.3204 10.357 10.082 10.793 1.3498 0.77315 8.8829-0.88331 10.932-2.4039 1.3314-0.98792 10.116-3.9701 11.167-3.7908 3.049 0.52039 11.309-0.28215 11.309-1.0988 0-0.55-0.63122-1-1.4027-1s-5.0855-4.1625-9.5868-9.25-9.6075-9.9909-11.347-10.896-10.112-9.0056-18.604-18c-20.249-21.446-20.508-21.738-19.841-22.404 0.31449-0.31449 8.7876 7.7808 18.829 17.99 13.404 13.627 18.882 18.561 20.605 18.561 1.2913 0 3.1354 0.81186 4.0978 1.8041 5.1157 5.274 12.535 13.702 13.911 15.801 1.8822 2.8725 3.0408 2.9869 5.7748 0.57016 1.1354-1.0037 3.9056-2.4022 6.1558-3.1077 5.0471-1.5825 8.2291-0.22229 13.734 5.8708 2.9873 3.3066 3.6748 4.8428 3.6748 8.2108v4.1432l2.4522-2.646c2.1664-2.3376 3.2087-2.646 8.941-2.646 3.5688 0 6.7668-0.45 7.1068-1s2.954-0.98999 5.809-0.97776c5.5035 0.02357 8.5205 1.6485 10.599 5.7082 1.0055 1.9643 1.825 2.2018 6.867 1.9901 6.1766-0.25926 8.0823-1.6252 4.4753-3.2077-1.2375-0.54292-2.25-1.5554-2.25-2.25s-0.45-1.2629-1-1.2629-1-0.675-1-1.5 0.72314-1.5 1.607-1.5c1.0352 0 1.397-0.54722 1.0169-1.5378-0.32457-0.84582-0.03522-1.7026 0.64301-1.9041 4.8414-1.4378 4.9818-1.5536 3.7233-3.0699-1.511-1.8206-1.943-1.6904 6.4917-1.9573 6.4384-0.20376 7.1973-0.00548 9.75 2.5472 1.7919 1.7919 2.7681 3.8244 2.7681 5.7633 0 5.5402 0.70653 6.1587 7.0356 6.1587 5.3812 0 7.9382-1.0458 9.1252-3.7321 0.18661-0.42232 2.7018-2.5478 5.5893-4.7234s5.25-4.2084 5.25-4.5175 2.0903-2.7434 4.6452-5.4096l4.6452-4.8477-1.1452-4.9612c-0.62984-2.7286-1.1383-6.3893-1.1299-8.1349 0.01811-3.7525 1.3847-6.4535 2.4187-4.7805 0.37621 0.60872 0.4059 1.5568 0.06598 2.1068s-0.14148 1 0.44098 1 1.059-0.675 1.059-1.5 0.70156-1.5 1.559-1.5 1.2809 0.45 0.94098 1-0.08902 1 0.55756 1c0.71031 0 0.98908 0.97567 0.70436 2.4651-0.25918 1.3558-0.07189 2.5982 0.41621 2.7609 0.51542 0.17181 0.50615 3.7038-0.02212 8.4256-0.95644 8.5489-2.4729 11.624-10.924 22.153-1.9004 2.3676-3.2925 4.406-3.0935 4.5296 2.1587 1.3414 8.4048 3.6768 11.272 4.2147 5.7144 1.072 5.2355 2.4508-0.85131 2.4508-4.2747 0-5.559 0.34655-5.559 1.5 0 2.0955-1.7036 1.869-3.7283-0.49569-0.93981-1.0976-3.1563-2.2672-4.9255-2.5992-2.8708-0.53856-3.7883-0.04948-8.5315 4.548-2.9231 2.8333-6.5522 5.8999-8.0647 6.8148-3.7077 2.2426-3.4601 3.2321 0.80864 3.2321 2.4871 0 4.726-0.9381 7.4356-3.1156 2.6174-2.1034 5.3598-3.2827 8.4414-3.6301 4.9675-0.55991 6.3337 1.0552 2.3144 2.7362-3.795 1.5873-6.033 3.8295-5.4191 5.4294 0.72742 1.8956-0.65592 2.7703-5.7943 3.6638-4.0378 0.70208-8.3092 2.0496-14.141 4.4611-2.258 0.93376-4.0016 3.0082-6.3973 7.6114-2.0244 3.8898-5.782 8.6971-9.7527 12.477-6.3464 6.0416-6.4355 6.1991-5.0951 8.9958 0.75035 1.5656 2.0771 2.9838 2.9483 3.1515s4.4066-2.4142 7.8563-5.7378 6.7993-6.0428 7.4436-6.0428 3.1805-2.3193 5.6361-5.154c10.31-11.902 14.578-16.488 20.482-22.011 3.4306-3.2091 6.7267-5.8348 7.3248-5.8348s1.535-0.83642 2.0821-1.8587c0.55776-1.0422 3.0992-2.4047 5.7852-3.1015 2.6347-0.68352 5.8687-1.5565 7.1866-1.94l2.3962-0.69725-3.2521-3.7039c-1.7886-2.0372-3.646-5.3902-4.1275-7.4513-0.79124-3.3871-0.61281-3.9657 1.8559-6.0187 3.7167-3.0908 6.6976-3.7051 11.295-2.3278 3.3619 1.0073 5.0408 0.82732 12.525-1.3423 9.644-2.7959 11.361-2.4912 13.927 2.4711 1.3514 2.6134 2.0666 2.9704 5.9513 2.9704 4.7458 0 5.1793 0.36687 7.663 6.4853 1.8553 4.5704 4.2237 5.2784 4.6739 1.3974 0.22356-1.9272-1.3122-4.7617-5.8246-10.75l-6.1282-8.1327h-5.472c-5.0891 0-5.5911-0.21731-7.1754-3.1059l-1.7035-3.1059-11.5 0.61911c-6.325 0.34051-12.738 0.89062-14.25 1.2225-2.1281 0.46691-2.75 0.23217-2.75-1.038 0-2.7599 4.8261-3.743 21.25-4.3288 8.6625-0.30894 15.75-0.86607 15.75-1.238 0-3.2566-11.222-8.0041-23.628-9.996-2.8206-0.45286-6.1956-1.4936-7.5-2.3129s-4.8467-2.2543-7.8717-3.1891-7.9698-2.8308-10.988-4.2133-9.0388-3.1833-13.378-4.0017c-4.8998-0.92414-9.6829-2.5915-12.622-4.4-2.6029-1.6016-5.0503-2.912-5.4387-2.912-1.0191 0-7.9256-5.2568-8.8811-6.7598-1.6883-2.6554-11.286-12.082-13.376-13.137-1.2013-0.60669-3.2691-1.1031-4.595-1.1031s-3.1751-0.84463-4.1094-1.877c-1.9687-2.1754-9.9816-3.5194-15.174-2.5453-2.1992 0.41257-4.6891 1.9786-6.7161 4.2239-13.744 15.225-13.711 15.198-18.679 15.198-3.3277 0-5.5703-0.67642-7.8716-2.3742-2.6278-1.9387-4.6355-2.4216-10.944-2.6321-12.523-0.41795-13.47-0.37525-19.226 0.86617-3.025 0.65244-6.85 0.90231-8.5 0.55526-3.2468-0.68289-7.5-4.0468-7.5-5.9319 0-0.64252-1.6848-2.0266-3.7439-3.0757-3.2798-1.671-12.256-9.6877-12.256-10.946 0-1.0316 4.0193-0.34318 9.5934 1.6431 3.7571 1.3388 8.2613 2.0926 12.377 2.0714 3.5588-0.01829 8.5088 0.35224 11 0.8234 3.3632 0.6361 6.0098 0.42462 10.279-0.82142 5.2219-1.524 5.8064-1.9776 6.3634-4.9391 0.33733-1.7936 1.0123-3.5076 1.5-3.809s0.88664-2.0964 0.88664-3.989c0-2.392 0.45728-3.441 1.5-3.441 2.2086 0 1.8774-5.9606-0.5-9-2.6866-3.4347-2.5831-5.3749 0.25-4.6862 8.2804 2.0131 10.26 2.787 12.612 4.9314 4.8322 4.4056 12.568 8.5835 18.906 10.21 7.1284 1.8295 9.8322 1.6924 13.457-0.68244 2.5176-1.6496 2.6023-1.6136 7.1344 3.0289 8.5579 8.7665 8.71 8.8583 15.865 9.575 4.5801 0.45883 7.3372 0.29015 8.6491-0.52914 1.8158-1.134 1.8352-1.3927 0.33992-4.5283-1.4943-3.1335-1.474-3.4103 0.35085-4.7906 1.0652-0.80574 3.0298-1.4793 4.3657-1.4968s3.9057-0.56577 5.7105-1.2184c2.5658-0.92781 5.0396-0.90108 11.343 0.12253l8.0613 1.3091 2.5476-2.7489c2.2621-2.4408 3.0395-2.6815 6.9357-2.1475 2.4134 0.3308 7.0675 1.5041 10.342 2.6073 7.562 2.5474 17.131 3.7661 17.131 2.1818 0-0.62573-0.40959-1.1377-0.9102-1.1377s-3.0884-1.7218-5.7506-3.8261c-4.435-3.5057-4.9981-4.4478-6.7236-11.25-1.0358-4.0831-2.1917-10.574-2.5687-14.424-0.73607-7.5164-1.6668-9.7113-6.9406-16.368-3.5295-4.4547-5.9869-10.058-6.0623-13.823-0.02414-1.205-0.52506-2.4884-1.1132-2.8518s-0.95779-2.5275-0.82156-4.809c0.3486-5.8377-1.3132-8.2176-8.1468-11.667-3.2793-1.6554-5.9624-3.4533-5.9624-3.9954 0-1.3656 0.37625-1.2786 5.0824 1.1744 3.7062 1.9318 4.5201 2.024 7.7045 0.87244 3.4962-1.2642 3.6224-1.218 6.9838 2.5594 1.8828 2.1158 3.9421 4.563 4.5763 5.4383s3.1372 2.689 5.5622 4.0306c6.5732 3.6365 6.8681 4.5839 4.1373 13.291-1.9137 6.1022-2.1474 8.0235-1.2555 10.323 2.0201 5.2079 3.4347 14.662 2.8414 18.991-0.49481 3.61-0.2728 4.4566 1.404 5.354 1.1139 0.59616 3.5604 0.77164 5.551 0.39818 3.0683-0.57561 3.9976-0.25203 6.736 2.3454 4.0966 3.8857 8.8151 6.237 12.516 6.237 4.1926 0 6.1736 2.0544 14.464 15 22.511 35.15 29.971 46.623 31.03 47.72 0.64776 0.67111 2.1 0.97903 3.2272 0.68427 1.7282-0.45194 2.5666-2.7591 5.349-14.72 1.8148-7.8014 4.8274-20.145 6.6946-27.429s3.395-13.472 3.395-13.75 0.49814-0.50499 1.107-0.50499c0.64408 0 0.82546 0.7318 0.43376 1.75-0.37028 0.9625-1.2703 4.45-2.0001 7.75-6.9074 31.235-10.829 47.516-12.095 50.218-1.467 3.1292-1.4074 3.37 2.1647 8.75 2.0203 3.0427 4.0595 5.5322 4.5316 5.5322s0.85842-1.575 0.85842-3.5 0.45-3.5 1-3.5 1 0.7301 1 1.6224c0 1.3288 0.27149 1.3971 1.5 0.37756 1.0364-0.8601 1.5-0.89795 1.5-0.12244 0 0.61734 0.72314 1.1224 1.607 1.1224 0.98544 0 1.394 0.55517 1.0562 1.4354-0.30295 0.78947-0.03348 1.6078 0.59881 1.8186 0.76125 0.25375 0.40443 1.6462-1.0562 4.1218-2.737 4.6389-2.741 5.6028-0.04228 10.177 2.0481 3.4713 2.3811 3.6377 6.2427 3.1198 5.5815-0.74863 12.93 0.98677 15.39 3.6346 1.1207 1.2062 3.6403 4.5863 5.5991 7.5113 3.3793 5.0463 3.4815 5.4404 1.997 7.706-0.86048 1.3133-1.2566 2.8859-0.88035 3.4947s-0.04252 1.91-0.93068 2.8914c-1.5096 1.6681-1.2907 2.0875 3.3592 6.437 2.7357 2.5589 5.8933 4.6526 7.0169 4.6526 2.4008 0 2.3319 0.46396 0.92116-6.2008-0.82248-3.8857-1.9562-6.0124-4.25-7.9727-2.5986-2.2208-2.9419-2.9828-2.0275-4.5 1.6174-2.6835 5.5091-2.7347 9.2922-0.12217 3.5804 2.4726 9.0793 13.691 9.1388 18.645 0.0301 2.5073 0.28764 2.3653 4.75-2.6188 3.1108-3.4745 5.4954-5.2631 6.9996-5.25 1.2548 0.01091 2.5213-0.60544 2.8146-1.3697 0.3174-0.82714 1.3487-1.1762 2.5483-0.86253 1.7239 0.45081 1.9675 0.10972 1.6854-2.3605-0.24684-2.1619-0.92861-2.9722-2.713-3.2245-2.2785-0.32219-2.3569-0.58988-1.7828-6.0827 0.85894-8.2179 1.3518-9.0803 5.1898-9.0803 1.8203 0 3.4801-0.51131 3.6884-1.1362 0.27504-0.82511 0.91396-0.84165 2.3333-0.0604 1.075 0.59171 3.1791 1.3333 4.6757 1.648 3.386 0.71202 5.0168 3.641 5.1647 9.2759l0.11419 4.3512 3.75-0.62715c3.5737-0.59766 5.1324 0.57622 2.7337 2.0587-2.4744 1.5293 0.42807 2.1768 4.762 1.0624 4.5419-1.1679 4.7499-1.3755 4.6547-4.6475-0.05479-1.8838-0.72979-4.9267-1.5-6.7622-1.318-3.1408-1.2614-3.4498 0.9604-5.25 2.4964-2.0227 8.5963-2.6003 9.6392-0.91282 1.2185 1.9716 2.5068 0.92007 5.0698-4.1378 2.2891-4.5174 2.4796-5.6258 1.5776-9.1794-0.66358-2.6143-0.68609-4.6764-0.06375-5.8393 2.4749-4.6245 8.8147-4.0121 9.0506 0.87422 0.34327 7.1117-0.54074 12.35-3.2248 19.108-3.3976 8.5547-3.3321 8.1744-1.4095 8.1744 0.825 0 1.5-0.675 1.5-1.5 0-0.83333 0.88889-1.5 2-1.5 1.1 0 2-0.62686 2-1.393 0-3.3599 8.2244-4.2561 11.415-1.2438 3.6541 3.45 4.6726 6.9142 2.9877 10.162-1.282 2.4711-1.2564 2.979 0.23359 4.6254 2.5829 2.8541 3.7847 2.2995 8.4523-3.9005 5.9508-7.9045 12.923-15.25 14.475-15.25 0.70948 0 5.6838-4.725 11.054-10.5 9.0051-9.6839 11.397-11.734 11.373-9.75-0.00486 0.4125-2.4992 3.45-5.543 6.75s-7.8323 8.5875-10.641 11.75-5.827 5.7525-6.707 5.7556-4.1672 3.3309-7.3049 7.3952c-5.1511 6.6722-5.5085 7.4409-3.6818 7.9186 2.5911 0.67759 7.5663-1.042 8.2623-2.8557 0.29476-0.76814 3.0308-2.8046 6.0802-4.5256 4.2605-2.4045 5.5442-3.6721 5.5442-5.4745 0-2.9424 1.9673-4.2734 3.1617-2.1391 0.74599 1.333 1.3337 1.4069 3.465 0.43585 2.489-1.1341 2.5496-1.3823 2.0046-8.2149-0.32444-4.0675-0.21378-6.2001 0.26183-5.0454 0.71491 1.7356 0.9273 1.5374 1.6069-1.5 0.66651-2.979 0.89488-3.2023 1.5342-1.5 0.6547 1.7432 0.83739 1.7895 1.423 0.36051 0.41893-1.0222 1.4006-1.4489 2.6073-1.1334 2.2948 0.60009 2.353 1.1366 0.40362 3.714-0.80751 1.0676-1.4682 3.0104-1.4682 4.3174 0 1.9212 0.38302 2.2547 2 1.7415 2.4345-0.77267 2.5607 0.22295 0.33946 2.6774-1.9628 2.1689-2.0871 2.0188 3.7991 4.5874l4.6385 2.0241 0.10789 7.0874c0.10578 6.9491 0.05429 7.0993-2.6385 7.6985-5.4869 1.2209-6.2464 1.5848-6.2464 2.9926 0 2.2351 9.2408 1.8606 14-0.56739 2.1562-1.1 4.661-2 5.5662-2s2.5311-1.1253 3.613-2.5007 3.8904-3.6278 6.2411-5.0055c3.7585-2.2026 9.2404-7.8021 13.442-13.73 1.2735-1.7968 1.1435-1.9004-2-1.5928-5.2983 0.51843-4.3439-2.3606 1.3827-4.171 4.481-1.4166 4.7431-1.6946 4.7146-5-0.03523-4.084-1.2428-6.4922-5.7093-11.386-3.5506-3.8902-4.0653-5.141-1.75-4.2525 1.1954 0.45872 1.5-0.33176 1.5-3.893 0-5.1012 0.8816-5.4716 6.4704-2.7186 2.724 1.3419 3.4412 2.2254 3.0752 3.7882-0.26255 1.121 0.18229 4.23 0.98853 6.9089s1.4659 6.1227 1.4659 7.6528 0.44261 3.0556 0.98359 3.39c1.1641 0.71943 14.281-3.1781 36.881-10.959 9.0008-3.0988 16.594-5.4053 16.874-5.1256 2.1307 2.1307-1.936 4.0061-29.94 13.807-5.2659 1.843-5.6862 2.2166-5.5 4.8896 0.11088 1.5918 0.5391 2.8951 0.9516 2.8962s0.75 0.69111 0.75 1.5334 0.6338 1.7746 1.4084 2.0719 1.8737 1.7456 2.4423 3.2186c1.4937 3.8693 4.1492 17.812 4.1492 21.785 0 1.8662 0.43666 3.393 0.97036 3.393s3.3462-1.0661 6.25-2.3691 6.6296-2.7015 8.2796-3.1077l3-0.73859-5-1.9803 2.25-0.86993c2.6979-1.0431 2.8815-2.4628 0.5-3.8664-1.5263-0.89955-1.5582-1.1596-0.25-2.0344 0.825-0.55164 2.9144-1.0099 4.643-1.0183 1.8601-0.00906 3.378-0.62756 3.7186-1.5153 0.42253-1.1011 2.1602-1.5 6.5344-1.5 5.2463 0 6.2066 0.31505 8.0314 2.6349 3.8705 4.9205 2.0804 15.365-2.6334 15.365-2.9368 0-6.9747 3.8796-7.908 7.5979-0.5315 2.1177 0.10666 4.2575 2.7093 9.0848 3.2112 5.956 3.6095 6.3147 7.0121 6.316l3.6076 0.00133 0.64947-6.2139c0.37257-3.5645 1.7124-8.2466 3.1425-10.982 1.3711-2.6222 2.493-5.6246 2.493-6.6718s0.61239-3.0845 1.3609-4.5272c1.516-2.9221 7.0661-8.5368 8.63-8.7305 0.555-0.06875 1.4591-0.2375 2.0091-0.375s1.4359-0.30625 1.9686-0.375c1.4704-0.18975 0.04909-3.2166-3.3854-7.2098-1.6958-1.9716-3.8138-4.9464-4.7067-6.6106-1.4231-2.6522-2.2873-3.0913-7-3.5566-2.9571-0.2919-5.8265-0.18394-6.3765 0.23992s-4.375 2.2248-8.5 4.002-10.344 4.5316-13.82 6.1207-7.2435 2.8893-8.3724 2.8893c-4.4251 0 0.58538-2.9247 15.669-9.1462 11.792-4.8639 15.53-6.8411 15.94-8.4323 0.73056-2.8351 4.3708-4.2948 12.623-5.0618 7.152-0.66471 8.8654-0.03455 4.4601 1.6403-3.3457 1.272-3.1282 2.013 1.538 5.2405l3.962 2.7405v134.32l-4.25-6.4248c-2.3375-3.5337-5.5296-8.0855-7.0935-10.115l-2.8435-3.6904-5.9065 8.9951c-3.2486 4.9473-5.9065 9.5738-5.9065 10.281s-2.034 2.8101-4.52 4.6728c-5.7287 4.2923-6.7899 7.7155-6.3328 20.428l0.35284 9.8134 5.25 4.7011c7.0836 6.343 6.9142 7.4625-1 6.607-6.8651-0.74209-7.7903-0.75662-22.09-0.34679-7.5642 0.21679-10.019-0.038-10.615-1.1016zm-509.2-6.6164c0.19898-1.1 1.0755-2.8046 1.9479-3.788 1.4645-1.6509 1.3796-1.9945-1.1087-4.4827l-2.6948-2.6948-3.4754 3.9827c-3.9931 4.5761-4.1277 5.1468-1.8159 7.7013 2.2172 2.45 6.6544 2.0039 7.1469-0.71859zm21.382 0.09533c0.25282-1.3226 0.03716-3.1597-0.47925-4.0824s-0.66439-3.3282-0.32885-5.3453l0.61009-3.6676-4.0678 4.5c-6.4044 7.0848-6.6163 7.8131-2.7605 9.4882 4.7806 2.0768 6.5004 1.8583 7.0263-0.89286zm506.17 0.82288c0.68391-1.7822 0.83272-8.4182 0.18878-8.4182-0.23002 0-1.1009-0.26196-1.9352-0.58214-1.1062-0.42447-1.8422 0.50317-2.7176 3.4249-0.66031 2.2039-0.92857 4.7158-0.59614 5.5821 0.78363 2.0421 4.2758 2.0375 5.0602-0.00672zm-585.28-6.9286c0.80016-9.1504 1.3662-10.253 5.9733-11.633 2.2336-0.66921 4.1317-1.9624 4.477-3.0502 0.33553-1.0572 1.8846-2.1455 3.519-2.4724 1.6058-0.32115 2.9196-0.91124 2.9196-1.3113 0-1.014-19.185-2.2656-19.997-1.3046-0.36381 0.43009-1.2539 3.932-1.9779 7.782s-1.9478 8.8-2.7196 11c-1.3615 3.8811-1.324 4.0684 1.2611 6.3011 4.4249 3.8218 5.8474 2.6674 6.5451-5.3115zm257.39 6.7451c0.55-0.40408 1.0352-2.7597 1.0781-5.2347s0.26798-5.5808 0.5-6.9017c0.6153-3.503-4.0482-4.6962-7.5596-1.9342-2.0161 1.5859-2.5186 2.8673-2.5186 6.4232 0 3.9385 0.36848 4.6668 3.25 6.4237 3.6273 2.2116 3.8384 2.2608 5.25 1.2237zm-161.5-1.2456c0-0.55599 0.8577-2.9185 1.906-5.25 2.8246-6.2821 3.4062-15.132 1.1755-17.887-3.1622-3.9052-4.893-1.9076-6.4229 7.4132-0.1594 0.97109-0.82279 2.2986-1.4742 2.95s-1.1844 2.024-1.1844 3.0501-0.51058 2.8198-1.1346 3.9858c-0.96888 1.8104-0.74161 2.4581 1.5558 4.4343 2.7951 2.4042 5.5789 3.0545 5.5789 1.3033zm15.968-3.3615c-0.0175-1.1702-0.6786-2.9821-1.4691-4.0265-1.3957-1.844-1.4951-1.8295-3.4349 0.5-2.5935 3.1145-2.5571 4.3234 0.18586 6.1687 2.6629 1.7915 4.7669 0.61327 4.7182-2.6422zm269.21-1.706c0.92345-2.9818 2.179-7.334 2.7901-9.6716 1.0079-3.855 1.4094-4.2582 4.321-4.3387 2.615-0.07223 4.2075-1.2092 8.5933-6.1356 4.7692-5.357 5.1834-6.1589 3.6305-7.0279-2.24-1.2535-10.024-0.39889-12.107 1.3292-0.87663 0.72753-2.9499 4.3556-4.6073 8.0623-2.3004 5.1448-3.67 6.9684-5.7881 7.7068-2.2503 0.78446-3.1534 2.1369-4.7791 7.1568l-2.0045 6.1896 3.1359 1.3624c1.7248 0.7493 3.5859 1.2332 4.1359 1.0753s1.7556-2.7268 2.679-5.7086zm-154.79 1.4967c1.2556-3.2722 0.61007-5.3793-1.8362-5.9933-3.2853-0.82455-4.7827 0.27137-3.9751 2.9092 1.3846 4.5227 4.6037 6.231 5.8113 3.084zm-104.39-6.5406c0-2.5596-0.2518-2.9135-1.3968-1.9632-0.76822 0.63757-1.1657 2.0427-0.88336 3.1224 0.80014 3.0598 2.2801 2.3074 2.2801-1.1592zm448.4 0.62244c0.60719-1.1 2.3481-3.9448 3.8686-6.3218s2.5065-4.7395 2.191-5.25c-1.1507-1.8619-7.6573-0.85519-13.484 2.0862l-5.9715 3.0144v-2.4074c0-2.177-1.628-3.6214-4.0818-3.6214-0.50501 0-0.91821 2.8875-0.91821 6.4167 0 6.0846 0.14232 6.4698 2.75 7.4427 1.5125 0.56433 5.4032 0.93933 8.646 0.83334 4.7408-0.15496 6.1123-0.58458 7-2.1927zm-260.1-37.75c1.0707-4.5441 5.1566-14.137 6.885-16.164 0.97826-1.1474 3.3775-3.8337 5.3317-5.9695 6.5434-7.1517 1.5345-6.0406-6.2517 1.3867-2.8809 2.7482-5.6723 4.9966-6.203 4.9966-1.6606 0-2.9346 6.8047-2.3446 12.522s1.6765 7.0734 2.5826 3.228zm2.8327-24.485c1.8537-1.5209 6.7453-6.1403 10.87-10.265l7.5-7.5 0.03784-8c0.02081-4.4 0.41582-9.9125 0.8778-12.25 0.47636-2.4102 0.45998-4.2497-0.03783-4.2494-0.4828 3.5e-4 -5.1528 3.8552-10.378 8.5662-5.225 4.7111-10.625 8.7973-12 9.0804-1.968 0.40527-3.0048 1.8119-4.8726 6.6104l-2.3726 6.0956 2.2171 6.5733c1.2194 3.6153 2.3964 7.1643 2.6155 7.8867 0.45078 1.486 0.84848 1.3032 5.5422-2.548zm-308.08-0.26533c2.4375-4.7981 7.9524-17.233 7.9524-17.931 0-0.45352 0.60085-1.3232 1.3352-1.9327s1.9432-3.0271 2.6863-5.3724 2.1673-5.4588 3.1648-6.9187 1.8137-3.086 1.8137-3.6136 1.1932-2.1524 2.6515-3.6108 2.4708-2.8077 2.25-2.9986-4.7513-0.64049-10.068-0.99914c-9.6031-0.64784-9.6798-0.6348-11.75 1.9971-1.1461 1.457-2.0838 3.0374-2.0838 3.512 0 1.7431-6.986 10.522-9.4021 11.815-1.3705 0.73346-2.7338 1.9643-3.0297 2.7352s1.4477 5.3202 3.8745 10.109 4.9582 10.191 5.6253 12.004c1.2605 3.4254 3.5677 3.9832 4.9796 1.2037zm583.42-4.25c1.7771-4.2416 4.9854-7.039 10.536-9.187 8.1438-3.1512 8.7049-4.9302 1.9168-6.0771-3.3575-0.56724-4.4672-0.31749-6.3189 1.4221-2.0592 1.9345-3.5978 1.9243-3.5978-0.02386 0-0.43034 1.5349-1.9531 3.4108-3.384 3.3137-2.5275 3.5176-2.5569 7.1611-1.0346 6.1286 2.5607 6.9281 1.7223 6.9281-7.265v-7.8204l-8 1.358c-7.6764 1.3031-10.5 2.8726-10.5 5.8363 0 0.65573-0.87025 1.4198-1.9339 1.698-1.3253 0.34657-2.1358 1.7207-2.5756 4.3666-0.35297 2.1235-1.045 4.9859-1.5379 6.3609-1.5345 4.2811-1.5806 13.538-0.07642 15.351 2.0021 2.4124 3.0609 2.0429 4.5875-1.6008zm-158.53-0.17597c2.3145-2.4637 1.9947-5.143-0.49958-4.1859-2.9134 1.118-2.172-1.1434 0.86196-2.6292 4.5851-2.2454 14.444-10.908 17.451-15.332l2.5605-3.7681-2.5032-2.0792c-1.3768-1.1436-4.6081-3.3134-7.1807-4.8218-5.6186-3.2945-6.504-5.1526-4.2919-9.0068 0.91939-1.6019 1.6716-3.4814 1.6716-4.1766s0.90276-2.081 2.0061-3.0795c2.7085-2.4512 1.8685-2.9402-2.3995-1.3969-2.3077 0.83449-3.8654 2.2059-4.4676 3.9333-0.50849 1.4586-2.7728 5.6944-5.0318 9.4128s-4.1073 7.4009-4.1073 8.1833c0 2.362 4.9291 3.6415 9.4844 2.462 3.851-0.99713 7.6021-1.4355 10.266-1.1996 1.7648 0.15628 1.5596 4.0547-0.25 4.7491-0.825 0.31659-1.5 1.4275-1.5 2.4686 0 2.1651-0.40051 2.2842-3.0011 0.89241-1.3058-0.69885-3.8263-0.5468-8.3581 0.50419-4.6807 1.0855-7.2245 1.225-9.1301 0.50046-3.5548-1.3515-6.9355 0.33353-5.616 2.7991 0.50605 0.94556 1.8425 2.554 2.9698 3.5742s3.0057 4.7277 4.1742 8.2388 2.6843 6.3838 3.3686 6.3838 2.2697-1.0917 3.5232-2.426zm52.121-10.074c4.0521-4.4 8.6569-8.8014 10.233-9.7809s3.8354-2.6844 5.0207-3.7887 3.1766-2.2642 4.425-2.5775c1.78-0.44674 2.2699-1.2743 2.2699-3.8342 0-3.955 3.1895-11.475 5.9118-13.939 1.0914-0.98773 3.8733-5.5558 6.1819-10.151 3.129-6.2286 5.1786-9.0047 8.0519-10.906 3.9189-2.5934 4.5239-3.9167 2.9366-6.4236-0.68111-1.0758-2.8512 0.58063-9.3433 7.1314-8.9933 9.0747-18.491 14.77-24.632 14.77-1.799 0-3.1228 0.52624-3.1445 1.25-0.02059 0.6875-1.7335 4.7466-3.8064 9.0202-3.6111 7.4448-3.6933 7.8387-1.9626 9.405 0.99353 0.89912 1.8064 2.0472 1.8064 2.5512 0 1.6195-2.9473 3.9242-4.1041 3.2092-0.61571-0.38053-1.4849-0.10065-1.9315 0.62194-0.66625 1.078-1.0927 1.0808-2.3764 0.01549-1.7517-1.4538-1.4118-1.997-4.133 6.6047-0.90091 2.8478-2.4968 5.955-3.5465 6.905s-1.9085 2.1353-1.9085 2.6341c0 1.8903 3.567 5.7629 5.092 5.5282 0.8756-0.13478 4.9073-3.8451 8.9594-8.2451zm-248.01 1.8918c0.5454-1.4345 2.3343-4.237 3.9752-6.2278s2.9836-4.2336 2.9836-4.9841 0.89009-2.496 1.978-3.879c1.5114-1.9214 1.739-2.9612 0.96481-4.4077-0.55724-1.0412-1.434-1.8931-1.9484-1.8931-1.9136 0-13.994 15.296-13.994 17.718 0 5.8306 4.2406 8.4092 6.0411 3.6734zm303.96-7.0322c2.475-1.4608 5.4707-3.2472 6.6571-3.9699 1.1997-0.73079 2.9166-3.6008 3.8684-6.4663 1.2017-3.6181 2.5675-5.6393 4.5866-6.7878 2.7623-1.5712 3.9449-4.1356 1.9072-4.1356-0.53939 0-2.0019-2.1375-3.25-4.75-4.838-10.127-12.424-5.5008-17.099 10.427-0.83577 2.8476-3.1285 7.5666-5.095 10.487s-3.5755 6.0804-3.5755 7.0229c0 2.6805 3.1251 3.9664 5.5 2.263 1.1-0.78894 4.025-2.6296 6.5-4.0904zm-158.68-7.1096c0.32413-2.8875 0.21396-5.25-0.24483-5.25-1.1717 0-3.0877 8.1336-2.99 12.693l0.08158 3.8072 1.282-3c0.70509-1.65 1.5472-5.3625 1.8713-8.25zm-33.339 0.47432c-0.02747-1.5125-3.6752-6.3771-4.2812-5.7094-0.24214 0.26678-0.75469 2.6505-1.139 5.2972l-0.69873 4.8122 3.0706-1.5879c1.6888-0.87333 3.0606-2.1388 3.0484-2.8122zm-146.25-1.7243c1.3984-1.1 3.1569-2 3.9077-2s1.3651-0.3966 1.3651-0.88134 1.286-2.1722 2.8578-3.75c2.9394-2.9506 4.5647-6.9895 3.1616-7.8566-0.43605-0.2695-1.378 0.21516-2.0933 1.077s-3.4591 2.6609-6.0975 3.9978c-3.3578 1.7016-5.3889 3.5911-6.77 6.2982-2.7457 5.382-1.0471 6.8242 3.6685 3.115zm-132.8-6.5721c1.2559-2.5147 2.9106-4.8128 3.6773-5.107 2.2764-0.87353 1.5866-2.3209-1.1062-2.3209-3.8046 0-6.5 3.3174-6.5 8 0 2.2 0.37024 4 0.82274 4s1.8503-2.0575 3.1062-4.5721zm283.51-1.4031c1.9732-0.75019 2.5651-1.6733 2.5651-4 0-3.4642-1.0088-3.7233-5.0957-1.3091-3.1367 1.8529-3.5883 3.2003-1.7043 5.0844 1.4387 1.4387 1.0905 1.4202 4.2349 0.22475zm-24.587-11.465c1.4502-1.4686 1.4688-1.7777 0.15217-2.5288-0.825-0.47068-2.5814-1.7952-3.903-2.9434-4.5128-3.9205-6.097-2.3757-6.097 5.9453v4.8693l4.0978-1.8347c2.2538-1.0091 4.8413-2.5875 5.75-3.5077zm128.15 2.3811c0-2.1143-1.6397-2.486-4-0.90666-1.3011 0.87059-1.2484 1.1958 0.39732 2.4526 2.249 1.7176 3.6027 1.1367 3.6027-1.546zm-66.126-1.4882c1.665-1.401 2.8086-3.1169 2.5415-3.8131s0.43012-2.0947 1.5495-3.1078c2.6535-2.4014 2.5758-3.5319-0.24249-3.5319s-5.4448 2.9621-7.3046 8.2333c-0.77973 2.21-1.4177 4.1866-1.4177 4.3924 0 1.0644 2.1832 0.09096 4.8738-2.173zm-268.95-3.861 2.4243-2.5918h-2.5519c-2.7952 0-4.1726 1.2642-5.269 4.8358-0.62776 2.0451-0.4874 2.2121 1.1276 1.3418 1.0146-0.5467 2.9356-2.1603 4.2689-3.5858zm154.08 3.4082c0-0.55-0.45-1-1-1s-1 0.45-1 1 0.45 1 1 1 1-0.45 1-1zm295.17-1.655c2.4792-2.2436 2.2984-3.345-0.54882-3.345-3.08 0-5.0293 2.1932-3.3986 3.8238 1.5225 1.5225 1.7692 1.4926 3.9475-0.47878zm-285.73-7.5185c1.9557-3.9204 1.9633-5.2496 0.03915-6.8465-2.0026-1.662-2.1047-1.475-2.9366 5.3822-0.77515 6.3896 0.19565 6.8802 2.8974 1.4643zm173.7-6.1021c4.4026-2.3754 10.693-6.6378 11.339-7.6838 0.35369-0.57229 1.5094-1.0405 2.5683-1.0405s3.3948-1.3226 5.191-2.939c3.2061-2.8853 3.2292-2.967 1.2658-4.4682-2.7684-2.1167-2.8066-2.1027-7.0454 2.5892-4.7621 5.2711-11.245 10.248-14.964 11.488-3.0862 1.0287-4.5988 3.3303-2.1886 3.3303 0.80796 0 2.533-0.57403 3.8333-1.2756zm-408.58-4.2512c0.58083-0.7287 4.7431-2.5958 9.2495-4.149s8.1937-3.1501 8.194-3.5484c0.00113-1.6709-6.2777-3.7739-11.2-3.7512-4.6767 0.02157-7.5126 0.45042-16.55 2.5027-3.1278 0.71031-2.8312 2.0954 1.5 7.0051 3.8356 4.3479 6.4314 4.92 8.806 1.9409zm510.08-0.86231c0.07514-0.06096 0.30014-5.0608 0.5-11.111l0.36338-11-3.2375-1.4251c-3.7843-1.6658-5.4735-6.9107-3.1336-9.7301 1.2105-1.4585 1.0888-1.5501-1.1366-0.85551-7.6923 2.4007-7.5317 2.2353-8.5083 8.7607-0.64726 4.3247-0.53126 4.75 1.2956 4.75 2.5164 0 3.2205 1.8096 3.2205 8.2771 0 4.1868-0.48696 5.6218-2.6871 7.9182-2.4185 2.5244-2.4935 2.8079-0.75 2.8365 1.0654 0.0175 2.8011 0.68557 3.8572 1.4846 1.3332 1.0088 3.1671 1.2622 6 0.82904 2.244-0.34308 4.1414-0.67366 4.2165-0.73462zm-331.81-4.946c0.206-1.799-0.29137-3.2856-1.3609-4.0677-1.5794-1.1549-1.5796-1.3384-0.00321-2.9148 0.92528-0.92528 2.1002-1.6823 2.6109-1.6823s0.92857-0.45 0.92857-1-1.3414-1-2.981-1c-2.3892 0-3.1127 0.52501-3.6447 2.6447-0.36508 1.4546-1.4653 3.4462-2.4448 4.4258-2.0627 2.0627-1.5431 5.5961 0.92315 6.2775 3.7501 1.036 5.6436 0.18532 5.972-2.6832zm65.588-1.5433c-1.88-3.1826-3.9971-4.603-4.8365-3.2449-0.87104 1.4094 4.5306 8.4166 5.6359 7.3112 0.67658-0.67658 0.41402-2.012-0.79946-4.0663zm13.974 1.0619c0.27755-0.44908-0.82089-1.5995-2.441-2.5565-2.0289-1.1985-2.9456-2.5292-2.9456-4.2758 0-1.3946-0.9-3.6799-2-5.0783s-2-3.2081-2-4.0216c0-1.9276-4.121-9.2513-5.2056-9.2513-0.46051 0-1.3228 1.2375-1.9162 2.75s-1.9338 4.6745-2.9786 7.0268-1.8996 4.5101-1.8996 4.7953 1.5037 0.23647 3.3415-0.10831c2.8502-0.5347 3.806-0.16244 6.5003 2.532 1.7374 1.7374 3.426 4.2232 3.7525 5.5242 0.39696 1.5816 1.4738 2.5004 3.2497 2.7729 1.4608 0.22413 2.9669 0.47494 3.347 0.55735s0.91807-0.2176 1.1956-0.66669zm-30.801-15.949c2.5229-1.7072 10.414-13.827 10.414-15.995 0-2.6659-6.108-12.594-7.0563-11.469-0.54408 0.6451-4.464 18.152-5.7049 25.479-0.46435 2.7417 0.28801 3.378 2.347 1.9847zm-3.4058-16.798c0.99055-4.9153 2.0743-10.308 2.4083-11.983 0.68698-3.446-0.00968-4.2564-6.7004-7.7945-3.3606-1.7771-5.9501-4.6099-11.185-12.236-4.3131-6.2832-7.9873-10.529-10.016-11.573-1.7624-0.90757-4.727-3.7705-6.5881-6.362l-3.3838-4.7119-5.3563 0.44418c-2.946 0.2443-5.6424 0.73027-5.992 1.0799s-0.0219 2.1127 0.72838 3.9178 1.2331 4.0664 1.0729 5.025 2.8582 6.8949 6.7074 13.192 7.4256 12.938 7.9476 14.757 2.9128 6.3084 5.3131 9.9752 5.1376 8.0664 6.083 9.7769c1.3731 2.4842 2.1837 2.9933 4.0289 2.5302 1.3212-0.33159 4.2239 0.26705 6.7811 1.3985 2.4591 1.088 4.8939 1.8709 5.4106 1.7398s1.7499-4.26 2.7405-9.1753zm357.86 182.31c0.01948-2.3375 0.67854-5.375 1.4646-6.75 1.3462-2.355 1.4312-2.1085 1.4646 4.25 0.02809 5.3491-0.27588 6.75-1.4646 6.75-1.1036 0-1.4906-1.1231-1.4646-4.25zm-706.04-121.22c0-4.1781 0.20704-4.5251 3.1567-5.2894 2.669-0.69162 3.3689-1.5458 4.5303-5.5286 1.0366-3.5549 1.8568-4.7106 3.3433-4.7106 2.8653 0 2.9623 5.0009 0.21073 10.866-1.4391 3.0676-8.3402 9.1338-10.391 9.1338-0.46748 0-0.84996-2.0121-0.84996-4.4714z"/> </svg>